<svg width="44" height="44" viewBox="0 0 44 44" fill="none" xmlns="http://www.w3.org/2000/svg">
<path d="M22 0.5C33.8741 0.5 43.5 10.1259 43.5 22C43.5 33.8741 33.8741 43.5 22 43.5C10.1259 43.5 0.5 33.8741 0.5 22C0.50002 10.1259 10.1259 0.5 22 0.5Z" stroke="#262626" stroke-opacity="0.05"/>
<path d="M16.6008 22.71C16.5071 22.617 16.4327 22.5064 16.3819 22.3846C16.3312 22.2627 16.305 22.132 16.305 22C16.305 21.868 16.3312 21.7373 16.3819 21.6154C16.4327 21.4936 16.5071 21.383 16.6008 21.29L21.1908 16.71C21.2846 16.617 21.359 16.5064 21.4097 16.3846C21.4605 16.2627 21.4866 16.132 21.4866 16C21.4866 15.868 21.4605 15.7373 21.4097 15.6154C21.359 15.4936 21.2846 15.383 21.1908 15.29C21.0035 15.1037 20.75 14.9992 20.4858 14.9992C20.2217 14.9992 19.9682 15.1037 19.7808 15.29L15.1908 19.88C14.629 20.4425 14.3135 21.205 14.3135 22C14.3135 22.795 14.629 23.5575 15.1908 24.12L19.7808 28.71C19.9671 28.8948 20.2185 28.9989 20.4808 29C20.6124 29.0008 20.7429 28.9756 20.8647 28.9258C20.9866 28.876 21.0974 28.8027 21.1908 28.71C21.2846 28.6171 21.359 28.5065 21.4097 28.3846C21.4605 28.2627 21.4866 28.132 21.4866 28C21.4866 27.868 21.4605 27.7373 21.4097 27.6154C21.359 27.4936 21.2846 27.383 21.1908 27.29L16.6008 22.71Z" fill="#262626" fill-opacity="1"/>
<path d="M23.6008 22.71C23.5071 22.617 23.4327 22.5064 23.3819 22.3846C23.3312 22.2627 23.305 22.132 23.305 22C23.305 21.868 23.3312 21.7373 23.3819 21.6154C23.4327 21.4936 23.5071 21.383 23.6008 21.29L28.1908 16.71C28.2846 16.617 28.359 16.5064 28.4097 16.3846C28.4605 16.2627 28.4866 16.132 28.4866 16C28.4866 15.868 28.4605 15.7373 28.4097 15.6154C28.359 15.4936 28.2846 15.383 28.1908 15.29C28.0035 15.1037 27.75 14.9992 27.4858 14.9992C27.2217 14.9992 26.9682 15.1037 26.7808 15.29L22.1908 19.88C21.629 20.4425 21.3135 21.205 21.3135 22C21.3135 22.795 21.629 23.5575 22.1908 24.12L26.7808 28.71C26.9671 28.8948 27.2185 28.9989 27.4808 29C27.6124 29.0008 27.7429 28.9756 27.8647 28.9258C27.9866 28.876 28.0974 28.8027 28.1908 28.71C28.2846 28.6171 28.359 28.5065 28.4097 28.3846C28.4605 28.2627 28.4866 28.132 28.4866 28C28.4866 27.868 28.4605 27.7373 28.4097 27.6154C28.359 27.4936 28.2846 27.383 28.1908 27.29L23.6008 22.71Z" fill="#262626" fill-opacity="1"/>
</svg>
