<svg width="44" height="44" viewBox="0 0 44 44" fill="none" xmlns="http://www.w3.org/2000/svg">
<path d="M22 0.5C33.8741 0.5 43.5 10.1259 43.5 22C43.5 33.8741 33.8741 43.5 22 43.5C10.1259 43.5 0.5 33.8741 0.5 22C0.50002 10.1259 10.1259 0.5 22 0.5Z" stroke="#262626" stroke-opacity="0.05"/>
<path d="M20.6008 22.71C20.5071 22.617 20.4327 22.5064 20.3819 22.3846C20.3312 22.2627 20.305 22.132 20.305 22C20.305 21.868 20.3312 21.7373 20.3819 21.6154C20.4327 21.4936 20.5071 21.383 20.6008 21.29L25.1908 16.71C25.2846 16.617 25.359 16.5064 25.4097 16.3846C25.4605 16.2627 25.4866 16.132 25.4866 16C25.4866 15.868 25.4605 15.7373 25.4097 15.6154C25.359 15.4936 25.2846 15.383 25.1908 15.29C25.0035 15.1037 24.75 14.9992 24.4858 14.9992C24.2217 14.9992 23.9682 15.1037 23.7808 15.29L19.1908 19.88C18.629 20.4425 18.3135 21.205 18.3135 22C18.3135 22.795 18.629 23.5575 19.1908 24.12L23.7808 28.71C23.9671 28.8948 24.2185 28.9989 24.4808 29C24.6124 29.0008 24.7429 28.9756 24.8647 28.9258C24.9866 28.876 25.0974 28.8027 25.1908 28.71C25.2846 28.6171 25.359 28.5065 25.4097 28.3846C25.4605 28.2627 25.4866 28.132 25.4866 28C25.4866 27.868 25.4605 27.7373 25.4097 27.6154C25.359 27.4936 25.2846 27.383 25.1908 27.29L20.6008 22.71Z" fill="#262626" fill-opacity="1"/>
</svg>
